<?xml version="1.0" encoding="UTF-8" standalone="no"?>
<!DOCTYPE svg PUBLIC "-//W3C//DTD SVG 1.1//EN" "http://www.w3.org/Graphics/SVG/1.1/DTD/svg11.dtd">
<svg width="100%" height="100%" viewBox="0 0 400 400" version="1.1" xmlns="http://www.w3.org/2000/svg" xmlns:xlink="http://www.w3.org/1999/xlink" xml:space="preserve" xmlns:serif="http://www.serif.com/" style="fill-rule:evenodd;clip-rule:evenodd;stroke-linecap:round;stroke-linejoin:round;stroke-miterlimit:1.5;">
    <g transform="matrix(1,0,0,1,0,-776)">
        <g id="Artboard3" transform="matrix(0.963855,0,0,0.963855,-1677.11,711.422)">
            <rect x="1740" y="67" width="415" height="415" style="fill:none;"/>
            <g transform="matrix(1.95834e-16,3.19821,-3.19821,1.95834e-16,2304.1,-261.2)">
                <path d="M169,168L189,150C202.03,161.781 221.615,145.7 207,129L225,110L207,92C189.867,104.778 174.381,88.576 189,72L168,55L149,71C134.244,58.467 120.085,77.385 129,90L110,111L129,130C147.916,118.4 162.063,135.62 149,150L169,168Z" style="fill:white;"/>
            </g>
            <g transform="matrix(1.95834e-16,3.19821,-3.19821,1.95834e-16,2304.1,-261.2)">
                <path d="M169,168L189,150C202.03,161.781 221.615,145.7 207,129L225,110L207,92C189.867,104.778 174.381,88.576 189,72L168,55L149,71C134.244,58.467 120.085,77.385 129,90L110,111L129,130C147.916,118.4 162.063,135.62 149,150L169,168Z" style="fill:none;stroke:black;stroke-width:3.24px;"/>
            </g>
        </g>
    </g>
</svg>
