<svg width="100%" height="100%" viewBox="0 0 400 400" version="1.1"
    xmlns="http://www.w3.org/2000/svg" xmlns:xlink="http://www.w3.org/1999/xlink"
    xml:space="preserve" xmlns:serif="http://www.serif.com/"
    style="fill-rule:evenodd;clip-rule:evenodd;stroke-linecap:round;stroke-linejoin:round;stroke-miterlimit:1.5;">
    <g transform="matrix(1,0,0,1,-471,-959)">
        <g id="Logo" transform="matrix(0.963855,0,0,0.963855,-1206.11,894.422)">
            <rect x="1740" y="67" width="415" height="415" style="fill:none;"/>
            <clipPath id="_clip1">
                <rect x="1740" y="67" width="415" height="415"/>
            </clipPath>
            <g clip-path="url(#_clip1)">
                <g transform="matrix(1.0375,0,0,1.0375,1251.34,-927.963)">
                    <path d="M871,979L871,1339C871,1350.04 862.038,1359 851,1359L491,1359C479.962,1359 471,1350.04 471,1339L471,979C471,967.962 479.962,959 491,959L851,959C862.038,959 871,967.962 871,979Z" style="fill:none;"/>
                </g>
                <g>
                    <g transform="matrix(1.95834e-16,3.19821,-3.19821,1.95834e-16,2304.1,-261.2)">
                        <path d="M169,168L189,150C202.03,161.781 221.615,145.7 207,129L225,110L207,92C189.867,104.778 174.381,88.576 189,72L168,55L149,71C134.244,58.467 120.085,77.385 129,90L110,111L129,130C147.916,118.4 162.063,135.62 149,150L169,168Z" style="fill:rgb(123,139,222);"/>
                    </g>
                    <g transform="matrix(1.95834e-16,3.19821,-3.19821,1.95834e-16,2304.1,-261.2)">
                        <path d="M169,168L189,150C202.03,161.781 221.615,145.7 207,129L225,110L207,92C189.867,104.778 174.381,88.576 189,72L168,55L149,71C134.244,58.467 120.085,77.385 129,90L110,111L129,130C147.916,118.4 162.063,135.62 149,150L169,168Z" style="fill:none;stroke:black;stroke-width:3.24px;"/>
                    </g>
                </g>
            </g>
        </g>
    </g>
</svg>